<?xml version="1.0" encoding="utf-8"?>
<!-- Generator: Adobe Illustrator 21.0.2, SVG Export Plug-In . SVG Version: 6.00 Build 0)  -->
<svg version="1.1" id="Livello_1" xmlns="http://www.w3.org/2000/svg" xmlns:xlink="http://www.w3.org/1999/xlink" x="0px" y="0px"
	 viewBox="0 0 188 106" style="enable-background:new 0 0 188 106;" xml:space="preserve">
<style type="text/css">
	.st0{fill:#313130;}
</style>
<g>
	<path class="st0" d="M133.8,70c-6.9,6.7-15.4,10.1-25.6,10.1S89.5,76.8,82.6,70c-6.9-6.7-10.3-15.1-10.3-25.2s3.4-18.4,10.3-25.2
		c6.9-6.7,15.4-10.1,25.6-10.1s18.7,3.4,25.6,10.1c6.9,6.7,10.3,15.1,10.3,25.2S140.7,63.3,133.8,70z M125.3,27.3
		c-4.7-4.8-10.4-7.2-17.1-7.2c-6.8,0-12.5,2.4-17.1,7.2c-4.7,4.8-7,10.7-7,17.5c0,6.9,2.3,12.7,7,17.5c4.7,4.8,10.4,7.2,17.1,7.2
		c6.8,0,12.5-2.4,17.1-7.2c4.7-4.8,7-10.7,7-17.5C132.3,38,130,32.1,125.3,27.3z"/>
	<g>
		<path class="st0" d="M54,67c-2.9,1.3-6.3,2-10.2,2c-6.4,0-11.9-2.3-16.5-7c-4.7-4.7-7-10.4-7-17.4c0-6.9,2.3-12.6,7-17.1
			c4.7-4.5,10.5-6.7,17.4-6.7c3.9,0,7.3,0.6,10.2,1.9c2.5,1.1,5.1,2.9,7.9,5.3c1.6-3,3.7-5.9,6.4-8.4c0.1-0.1,0.2-0.2,0.4-0.3
			c-6.7-6.5-14.9-9.8-24.6-9.8c-10.6,0-19.3,3.4-26.3,10.2C11.7,26.5,8.2,34.9,8.2,45.1s3.4,18.5,10.2,25.2s15.4,10,25.7,10
			c9.6,0,17.8-3.5,24.8-10.4c-2.7-2.6-4.8-5.6-6.4-8.7C59.5,63.8,56.7,65.8,54,67z"/>
	</g>
	<g>
		<path class="st0" d="M159.1,9.6h7v17.2h-3.7V12.9h-3.3V9.6z"/>
		<path class="st0" d="M172.5,9.6h7v17.2h-3.7V12.9h-3.3V9.6z"/>
	</g>
	<rect x="156.6" y="33.2" class="st0" width="25.4" height="3.7"/>
	<g>
		<path class="st0" d="M12.1,92.2c1.3,0,2.4,0.4,3.2,1.2l-0.7,0.9c-0.7-0.6-1.5-1-2.5-1c-0.9,0-1.6,0.3-2.1,0.8
			c-0.6,0.6-0.8,1.3-0.8,2.2c0,0.9,0.3,1.6,0.8,2.2c0.6,0.6,1.3,0.9,2.1,0.9c1.1,0,2-0.4,2.6-1.1l0.7,0.8c-0.8,1-1.9,1.4-3.3,1.4
			c-1.2,0-2.2-0.4-3-1.2c-0.8-0.8-1.1-1.8-1.1-3c0-1.2,0.4-2.2,1.2-3C9.9,92.6,10.9,92.2,12.1,92.2z"/>
		<path class="st0" d="M17.6,93.3c0.8-0.8,1.8-1.2,3-1.2c1.2,0,2.2,0.4,3,1.2s1.2,1.8,1.2,3c0,1.2-0.4,2.2-1.2,3s-1.8,1.2-3,1.2
			c-1.2,0-2.2-0.4-3-1.2c-0.8-0.8-1.2-1.8-1.2-3C16.4,95.1,16.8,94.1,17.6,93.3z M22.8,94.2c-0.6-0.6-1.3-0.9-2.1-0.9
			c-0.9,0-1.6,0.3-2.1,0.9c-0.6,0.6-0.8,1.3-0.8,2.2c0,0.9,0.3,1.7,0.8,2.2c0.6,0.6,1.3,0.9,2.1,0.9c0.9,0,1.6-0.3,2.1-0.9
			c0.6-0.6,0.8-1.3,0.8-2.2C23.6,95.5,23.3,94.7,22.8,94.2z"/>
		<path class="st0" d="M31.4,92.2c1,0,1.8,0.3,2.3,0.9c0.6,0.6,0.8,1.4,0.8,2.4v5.1h-1.2v-4.8c0-0.7-0.2-1.3-0.6-1.7
			c-0.4-0.4-1-0.6-1.7-0.6c-0.8,0-1.5,0.3-1.9,0.7s-0.8,1.1-0.8,1.9v4.5H27v-8.3h1.2V94C28.8,92.8,29.8,92.2,31.4,92.2z"/>
		<path class="st0" d="M41.2,98.9l0.3,1c-0.6,0.4-1.2,0.6-1.9,0.6c-0.6,0-1.2-0.2-1.5-0.6c-0.4-0.4-0.6-1-0.6-1.8v-4.7h-1.2v-1h1.2
			v-2.2h1.2v2.2l2.6,0v1h-2.6V98c0,0.9,0.4,1.4,1.1,1.4C40.3,99.4,40.8,99.2,41.2,98.9z"/>
		<path class="st0" d="M46.6,92.2c1.3,0,2.3,0.4,3,1.2c0.7,0.8,1,2,0.9,3.4h-6.8c0.1,0.8,0.4,1.5,1,1.9c0.5,0.5,1.2,0.7,2,0.7
			c1,0,1.9-0.3,2.6-1l0.7,0.7c-0.8,0.9-1.9,1.4-3.3,1.4c-1.2,0-2.2-0.4-3-1.2c-0.8-0.8-1.1-1.8-1.1-3c0-1.2,0.4-2.2,1.1-3
			C44.4,92.6,45.4,92.2,46.6,92.2z M43.7,95.8h5.7c0-0.8-0.3-1.4-0.8-1.9c-0.5-0.5-1.2-0.7-2-0.7c-0.8,0-1.4,0.2-2,0.7
			S43.8,95,43.7,95.8z"/>
		<path class="st0" d="M57,92.2c1,0,1.8,0.3,2.3,0.9c0.6,0.6,0.8,1.4,0.8,2.4v5.1h-1.2v-4.8c0-0.7-0.2-1.3-0.6-1.7
			c-0.4-0.4-1-0.6-1.7-0.6c-0.8,0-1.5,0.3-1.9,0.7s-0.8,1.1-0.8,1.9v4.5h-1.2v-8.3h1.2V94C54.3,92.8,55.4,92.2,57,92.2z"/>
		<path class="st0" d="M62.9,89.2c0.2-0.2,0.3-0.2,0.6-0.2c0.2,0,0.4,0.1,0.6,0.2c0.2,0.2,0.2,0.4,0.2,0.6s-0.1,0.4-0.2,0.6
			c-0.2,0.2-0.3,0.2-0.6,0.2c-0.2,0-0.4-0.1-0.6-0.2c-0.2-0.2-0.2-0.4-0.2-0.6S62.7,89.4,62.9,89.2z M64.1,100.5h-1.2v-8.3h1.2
			V100.5z"/>
		<path class="st0" d="M71,98.9l0.3,1c-0.6,0.4-1.2,0.6-1.9,0.6c-0.6,0-1.2-0.2-1.5-0.6c-0.4-0.4-0.6-1-0.6-1.8v-4.7h-1.2v-1h1.2
			v-2.2h1.2v2.2l2.6,0v1h-2.6V98c0,0.9,0.4,1.4,1.1,1.4C70.1,99.4,70.6,99.2,71,98.9z"/>
		<path class="st0" d="M73.4,93.3c0.8-0.8,1.8-1.2,3-1.2s2.2,0.4,3,1.2c0.8,0.8,1.2,1.8,1.2,3c0,1.2-0.4,2.2-1.2,3
			c-0.8,0.8-1.8,1.2-3,1.2s-2.2-0.4-3-1.2c-0.8-0.8-1.2-1.8-1.2-3C72.3,95.1,72.6,94.1,73.4,93.3z M78.6,94.2
			c-0.6-0.6-1.3-0.9-2.1-0.9c-0.9,0-1.6,0.3-2.1,0.9c-0.6,0.6-0.8,1.3-0.8,2.2c0,0.9,0.3,1.7,0.8,2.2c0.6,0.6,1.3,0.9,2.1,0.9
			c0.9,0,1.6-0.3,2.1-0.9c0.6-0.6,0.8-1.3,0.8-2.2C79.4,95.5,79.2,94.7,78.6,94.2z"/>
		<path class="st0" d="M84,92.2v1.8c0.6-1.2,1.6-1.9,3-1.9v1.2c-0.9,0-1.6,0.2-2.1,0.7c-0.5,0.5-0.8,1.1-0.9,2v4.4h-1.2v-8.3H84z"/>
		<path class="st0" d="M91.9,92.2c1.3,0,2.3,0.4,3,1.2c0.7,0.8,1,2,0.9,3.4H89c0.1,0.8,0.4,1.5,1,1.9c0.5,0.5,1.2,0.7,2,0.7
			c1,0,1.9-0.3,2.6-1l0.7,0.7c-0.8,0.9-1.9,1.4-3.3,1.4c-1.2,0-2.2-0.4-3-1.2s-1.1-1.8-1.1-3c0-1.2,0.4-2.2,1.1-3
			S90.7,92.2,91.9,92.2z M89,95.8h5.7c0-0.8-0.3-1.4-0.8-1.9c-0.5-0.5-1.2-0.7-2-0.7c-0.8,0-1.4,0.2-2,0.7S89.1,95,89,95.8z"/>
		<path class="st0" d="M103,96.6V92h2.4v8.5H103v-1.1c-0.6,0.8-1.3,1.2-2.3,1.2c-0.9,0-1.7-0.3-2.3-0.9c-0.6-0.6-0.9-1.4-0.9-2.6V92
			h2.4v4.6c0,1.3,0.5,2,1.4,2c0.5,0,0.9-0.2,1.2-0.5C102.8,97.8,103,97.3,103,96.6z"/>
		<path class="st0" d="M110,95.8v4.7h-2.4V92h2.4V93c0.7-0.7,1.5-1.1,2.4-1.1s1.6,0.3,2.2,0.9c0.6,0.6,0.9,1.5,0.9,2.5v5.1h-2.4
			v-4.8c0-1.3-0.5-2-1.4-2c-0.5,0-0.9,0.2-1.2,0.5C110.1,94.6,110,95.1,110,95.8z"/>
		<path class="st0" d="M121.1,100.6c-1,0-1.9-0.4-2.7-1.3s-1.2-1.9-1.2-3.2s0.4-2.3,1.1-3.1c0.8-0.8,1.7-1.2,2.7-1.2
			s1.9,0.4,2.5,1.1v-4.2h2.4v11.7h-2.4v-1.1C122.9,100.2,122.1,100.6,121.1,100.6z M119.6,96.3c0,0.7,0.2,1.2,0.6,1.7
			s0.9,0.7,1.4,0.7c0.5,0,1-0.2,1.4-0.7s0.6-1,0.6-1.7s-0.2-1.3-0.6-1.7c-0.4-0.5-0.9-0.7-1.4-0.7s-1,0.2-1.4,0.7
			C119.8,95,119.6,95.6,119.6,96.3z"/>
		<path class="st0" d="M128.3,91c-0.3-0.3-0.4-0.6-0.4-1s0.1-0.7,0.4-1s0.6-0.4,1-0.4c0.4,0,0.7,0.1,1,0.4c0.3,0.3,0.4,0.6,0.4,1
			s-0.1,0.7-0.4,1c-0.3,0.3-0.6,0.4-1,0.4C128.9,91.4,128.6,91.2,128.3,91z M130.5,100.5h-2.4V92h2.4V100.5z"/>
		<path class="st0" d="M136.8,98.5c0.8,0,1.5-0.4,2.1-1.2l1.4,1.6c-1.1,1.1-2.3,1.7-3.5,1.7s-2.3-0.4-3.2-1.2s-1.3-1.9-1.3-3.1
			s0.4-2.3,1.3-3.2c0.9-0.8,1.9-1.2,3.2-1.2c0.6,0,1.2,0.1,1.8,0.4c0.6,0.3,1.2,0.6,1.6,1.1L139,95c-0.3-0.3-0.6-0.6-1-0.8
			c-0.4-0.2-0.8-0.3-1.2-0.3c-0.6,0-1.2,0.2-1.6,0.6c-0.4,0.4-0.7,1-0.7,1.7s0.2,1.3,0.7,1.7C135.7,98.3,136.2,98.5,136.8,98.5z"/>
		<path class="st0" d="M142.1,91c-0.3-0.3-0.4-0.6-0.4-1s0.1-0.7,0.4-1s0.6-0.4,1-0.4c0.4,0,0.7,0.1,1,0.4c0.3,0.3,0.4,0.6,0.4,1
			s-0.1,0.7-0.4,1c-0.3,0.3-0.6,0.4-1,0.4C142.7,91.4,142.4,91.2,142.1,91z M144.3,100.5h-2.4V92h2.4V100.5z"/>
	</g>
</g>
</svg>
